# xmcd
#
# Track frame offsets: 
#        150
#        14043
#        28690
#        44180
#        60678
#        76898
#        93615
#        107775
#        119463
#        133675
#
# Disc length: 1976 seconds
#
# Revision: 0
# Processed by: cddbd v1.4PL0 Copyright (c) Steve Scherf et al.
# Submitted via: ExactAudioCopy v0.90b3
#
DISCID=8f07b60a
DTITLE=Terri Gibbs - What A Great Day
DYEAR=1900
DGENRE=Country
TTITLE0=Everybody Is Somebody
TTITLE1=Dance While You Can
TTITLE2=One To Grow On
TTITLE3=The First Thing I'll See
TTITLE4=See You On The Other Side
TTITLE5=What A Great Day
TTITLE6=The Cover
TTITLE7=Rise To The Occasion
TTITLE8=David's Song
TTITLE9=In My Heart
EXTD=
EXTT0=
EXTT1=
EXTT2=
EXTT3=
EXTT4=
EXTT5=
EXTT6=
EXTT7=
EXTT8=
EXTT9=
PLAYORDER=
